<svg xmlns="http://www.w3.org/2000/svg" version="1.1" xmlns:xlink="http://www.w3.org/1999/xlink" width="200" height="200"><svg xmlns="http://www.w3.org/2000/svg" version="1.1" xmlns:xlink="http://www.w3.org/1999/xlink" width="200" height="200"><svg xmlns="http://www.w3.org/2000/svg" version="1.1" xmlns:xlink="http://www.w3.org/1999/xlink" viewBox="0 0 200 200"><rect width="200" height="200" fill="url('#gradient')"></rect><defs><linearGradient id="gradient" gradientTransform="rotate(163 0.5 0.5)"><stop offset="0%" stop-color="#304b63"></stop><stop offset="100%" stop-color="#261b1d"></stop></linearGradient></defs><g><g fill="#87ced8" transform="matrix(4.031696984799402,0,0,4.031696984799402,21.1194208845679,128.66962377919896)" stroke="#2b3c33" stroke-width="0.9"><path d="M9.98 0L9.15-2.66L4.45-2.66L3.63 0L-0.03 0L5.19-14.22L8.41-14.22L13.66 0L9.98 0ZM6.80-10.23L5.27-5.30L8.33-5.30L6.80-10.23ZM19.38 0L14.70 0L14.70-14.22L19.28-14.22Q21.16-14.22 22.67-13.36Q24.17-12.51 25.01-10.95Q25.86-9.39 25.87-7.46L25.87-7.46L25.87-6.81Q25.87-4.85 25.04-3.31Q24.22-1.76 22.72-0.88Q21.22-0.01 19.38 0L19.38 0ZM19.28-11.57L18.13-11.57L18.13-2.64L19.32-2.64Q20.79-2.64 21.58-3.69Q22.37-4.74 22.37-6.81L22.37-6.81L22.37-7.42Q22.37-9.48 21.58-10.53Q20.79-11.57 19.28-11.57L19.28-11.57ZM35.72-4.81L39.13-4.81Q39.06-3.33 38.33-2.19Q37.60-1.05 36.27-0.43Q34.95 0.20 33.25 0.20L33.25 0.20Q30.45 0.20 28.84-1.63Q27.23-3.46 27.23-6.79L27.23-6.79L27.23-7.49Q27.23-9.58 27.95-11.15Q28.68-12.71 30.05-13.57Q31.42-14.42 33.21-14.42L33.21-14.42Q35.80-14.42 37.37-13.06Q38.95-11.70 39.16-9.31L39.16-9.31L35.74-9.31Q35.70-10.61 35.09-11.17Q34.47-11.74 33.21-11.74L33.21-11.74Q31.93-11.74 31.34-10.78Q30.74-9.82 30.71-7.72L30.71-7.72L30.71-6.72Q30.71-4.44 31.28-3.47Q31.86-2.49 33.25-2.49L33.25-2.49Q34.43-2.49 35.06-3.05Q35.68-3.60 35.72-4.81L35.72-4.81Z"></path></g></g></svg></svg><style>@media (prefers-color-scheme: light) { :root { filter: none; } }
@media (prefers-color-scheme: dark) { :root { filter: none; } }
</style></svg>